# xmcd
#
# Track frame offsets:
#	150
#	75022
#	129026
#	163133
#	183451
#	208534
#	236844
#
# Disc length: 3492 seconds
#
# Revision: 1
# Processed by: cddbd v1.5.2PL0 Copyright (c) Steve Scherf et al.
# Submitted via: audiograbber 1.83.01
#
DISCID=4d0da207
DTITLE=Grateful Dead - 82-05-23 Greek Theatre, Uni of California, Berkeley CA
DYEAR=1900
DGENRE=
TTITLE0=Drums > Space
TTITLE1=The Other One
TTITLE2=Stella Blue
TTITLE3=I Need A Miracle
TTITLE4=Casey Jones
TTITLE5=Satisfaction
TTITLE6=Brokedown Palace
EXTD=
EXTT0=
EXTT1=
EXTT2=
EXTT3=
EXTT4=
EXTT5=
EXTT6=
PLAYORDER=
